<?xml version="1.0" encoding="UTF-8" standalone="no"?>

<svg
   xmlns:dc="http://purl.org/dc/elements/1.1/"
   xmlns:cc="http://creativecommons.org/ns#"
   xmlns:rdf="http://www.w3.org/1999/02/22-rdf-syntax-ns#"
   xmlns:svg="http://www.w3.org/2000/svg"
   xmlns="http://www.w3.org/2000/svg"
   xmlns:sodipodi="http://sodipodi.sourceforge.net/DTD/sodipodi-0.dtd"
   xmlns:inkscape="http://www.inkscape.org/namespaces/inkscape"
   width="444.58002"
   height="860.86792"
   id="svg6167"
   version="1.1"
   inkscape:version="0.48.1 "
   sodipodi:docname="test.eps">
  <defs
     id="defs6169" />
  <sodipodi:namedview
     id="base"
     pagecolor="#ffffff"
     bordercolor="#666666"
     borderopacity="1.0"
     inkscape:pageopacity="0.0"
     inkscape:pageshadow="2"
     inkscape:zoom="0.35"
     inkscape:cx="-61.281416"
     inkscape:cy="396.14825"
     inkscape:document-units="px"
     inkscape:current-layer="layer1"
     showgrid="false"
     fit-margin-top="0"
     fit-margin-left="0"
     fit-margin-right="0"
     fit-margin-bottom="0"
     inkscape:window-width="1280"
     inkscape:window-height="744"
     inkscape:window-x="-4"
     inkscape:window-y="-4"
     inkscape:window-maximized="1" />
  <metadata
     id="metadata6172">
    <rdf:RDF>
      <cc:Work
         rdf:about="">
        <dc:format>image/svg+xml</dc:format>
        <dc:type
           rdf:resource="http://purl.org/dc/dcmitype/StillImage" />
        <dc:title></dc:title>
      </cc:Work>
    </rdf:RDF>
  </metadata>
  <g
     inkscape:label="Layer 1"
     inkscape:groupmode="layer"
     id="layer1"
     transform="translate(-94.852845,-67.642485)">
    <g
       id="g6228">
      <rect
         ry="8.7124119"
         y="174.36954"
         x="213.81482"
         height="25.02026"
         width="208.26933"
         id="rect4791"
         style="opacity:0.55357139;fill:#fafda1;fill-opacity:1;stroke:none" />
      <rect
         style="opacity:0.55357139;fill:#fafda1;fill-opacity:1;stroke:none"
         id="rect5301"
         width="139.3253"
         height="25.02026"
         x="248.28683"
         y="139.5199"
         ry="8.7124119" />
      <rect
         ry="7.195519"
         y="106.84833"
         x="267.62479"
         height="20.664053"
         width="100.64939"
         id="rect5303"
         style="opacity:0.55357139;fill:#fafda1;fill-opacity:1;stroke:none" />
      <rect
         style="opacity:0.55357139;fill:#fafda1;fill-opacity:1;stroke:none"
         id="rect5305"
         width="31.705351"
         height="29.376465"
         x="302.0968"
         y="67.642487"
         ry="10.229305" />
      <rect
         style="opacity:0.55357139;fill:#fafda1;fill-opacity:1;stroke:none"
         id="rect5307"
         width="19.934406"
         height="53.335602"
         x="307.98227"
         y="217.39355"
         ry="18.572216" />
      <path
         sodipodi:nodetypes="ccccaccccccccscccccc"
         inkscape:connector-curvature="0"
         id="rect5309"
         d="m 94.852845,252.33126 c 27.257925,-16.34914 56.221225,-35.26378 92.832615,-35.83708 22.30902,-0.96749 44.61804,-0.91583 66.92706,17.52537 21.17225,20.26639 25.79596,53.09285 31.78643,84.88196 0,0 6.47893,49.60801 15.61441,71.44877 13.59014,32.49076 56.40101,84.08602 56.40101,84.08602 25.03506,37.6451 32.80988,60.39604 31.45078,107.65871 -1.8374,48.84914 -39.71486,60.13506 -69.85965,82.76735 -29.61401,19.84458 -47.96975,37.97982 -51.82626,57.76384 -6.83222,37.57766 46.76483,82.1677 40.10608,89.66787 -45.10895,-13.36011 -78.6404,-43.92969 -66.26521,-103.38242 14.86988,-68.29957 128.7737,-72.83908 126.54625,-129.8812 -1.42897,-26.14438 -14.36432,-57.82873 -30.97013,-82.48776 -19.55499,-27.73071 -32.68975,-49.10746 -51.5973,-79.79223 -2.87736,-4.66963 -25.04763,13.71542 -41.41543,11.08689 3.87963,-14.34503 25.89323,-30.97819 24.86498,-38.94285 -9.68944,-42.85352 -15.80472,-94.97224 -30.08478,-111.13515 -30.39562,-32.67689 -47.64509,-24.81855 -85.9841,-14.85882 11.39208,34.51777 39.10128,75.02698 31.92594,104.69194 z"
         style="opacity:0.55357139;fill:#fafda1;fill-opacity:1;stroke:none" />
      <path
         style="opacity:0.55357139;fill:#fafda1;fill-opacity:1;stroke:none"
         d="m 532.78902,285.73845 c 31.09718,-17.87069 -55.0435,-68.83737 -91.6549,-69.42441 -22.30902,-0.99066 -44.02918,2.87593 -66.3382,21.75908 -32.5958,37.87138 -53.42106,99.1236 -42.6855,154.01562 11.82373,60.73459 83.5396,113.19655 83.0469,171.96408 2.79401,87.21991 -143.60549,105.73728 -132.08599,175.58008 7.39255,51.47095 44.47613,44.6392 55.50161,23.66541 6.60236,-12.55965 -0.48233,-48.35803 -32.73684,-34.23298 4.31533,-20.57982 32.04602,-36.02166 66.17958,-55.94351 27.23097,-18.54412 71.38624,-63.71717 72.9178,-101.41712 5.89434,-63.422 -52.5774,-115.25879 -69.24824,-154.10281 -2.46852,-5.85252 12.16465,-2.42018 21.1767,-8.64947 -9.04769,-16.80407 -37.55388,-27.25293 -38.21814,-31.32694 -4.22994,-42.64349 9.64631,-85.62786 24.92349,-101.62904 12.93996,-13.04185 37.40177,-27.55321 61.1979,-27.56294 17.77305,5.0754 26.04512,9.43235 45.34274,28.33092 -52.45608,61.17992 -74.25787,86.60727 -65.38831,120.10964 8.86955,33.50237 30.15466,-66.36016 108.0694,-111.13561 z"
         id="path5313"
         inkscape:connector-curvature="0"
         sodipodi:nodetypes="scccccsccccccccczs" />
      <rect
         transform="scale(1,-1)"
         ry="8.7124119"
         y="-863.16736"
         x="248.2868"
         height="25.02026"
         width="139.3253"
         id="rect5080"
         style="opacity:0.55357139;fill:#fafda1;fill-opacity:1;stroke:none" />
      <rect
         transform="scale(1,-1)"
         style="opacity:0.55357139;fill:#fafda1;fill-opacity:1;stroke:none"
         id="rect5082"
         width="100.64939"
         height="20.664053"
         x="267.62476"
         y="-892.57172"
         ry="7.195519" />
      <rect
         transform="scale(1,-1)"
         ry="10.229305"
         y="-928.51044"
         x="302.09677"
         height="29.376465"
         width="31.705351"
         id="rect5084"
         style="opacity:0.55357139;fill:#fafda1;fill-opacity:1;stroke:none" />
    </g>
  </g>
</svg>
