<?xml version="1.0" encoding="UTF-8" standalone="no"?>
<!-- Created with Inkscape (http://www.inkscape.org/) -->

<svg
   xmlns:dc="http://purl.org/dc/elements/1.1/"
   xmlns:cc="http://creativecommons.org/ns#"
   xmlns:rdf="http://www.w3.org/1999/02/22-rdf-syntax-ns#"
   xmlns:svg="http://www.w3.org/2000/svg"
   xmlns="http://www.w3.org/2000/svg"
   xmlns:sodipodi="http://sodipodi.sourceforge.net/DTD/sodipodi-0.dtd"
   xmlns:inkscape="http://www.inkscape.org/namespaces/inkscape"
   width="302.67941"
   height="375.01254"
   id="svg2"
   version="1.1"
   inkscape:version="0.48.3.1 r9886"
   sodipodi:docname="New document 1">
  <defs
     id="defs4" />
  <sodipodi:namedview
     id="base"
     pagecolor="#ffffff"
     bordercolor="#666666"
     borderopacity="1.0"
     inkscape:pageopacity="0.0"
     inkscape:pageshadow="2"
     inkscape:zoom="0.22319706"
     inkscape:cx="61.799884"
     inkscape:cy="-12.183825"
     inkscape:document-units="px"
     inkscape:current-layer="layer1"
     showgrid="false"
     fit-margin-top="0"
     fit-margin-left="0"
     fit-margin-right="0"
     fit-margin-bottom="0"
     inkscape:window-width="1231"
     inkscape:window-height="776"
     inkscape:window-x="49"
     inkscape:window-y="24"
     inkscape:window-maximized="1" />
  <metadata
     id="metadata7">
    <rdf:RDF>
      <cc:Work
         rdf:about="">
        <dc:format>image/svg+xml</dc:format>
        <dc:type
           rdf:resource="http://purl.org/dc/dcmitype/StillImage" />
        <dc:title></dc:title>
      </cc:Work>
    </rdf:RDF>
  </metadata>
  <g
     inkscape:label="Layer 1"
     inkscape:groupmode="layer"
     id="layer1"
     transform="translate(-72.384029,-3.3092302)">
    <g
       id="g3822"
       transform="matrix(0.24969642,0,0,0.24969642,186.3197,67.369054)"
       style="fill:#fafda1">
      <path
         sodipodi:nodetypes="ccccc"
         inkscape:connector-curvature="0"
         id="rect2996"
         d="M -254.28571,-64.780683 C -166.52686,-58.986725 -76.573486,-92.275668 4.417901,-5.5338023 -41.35143,-3.6661698 -72.44006,-40.947071 -134.28571,3.7907457 -113.87108,181.2552 -86.612225,130.28219 -20,223.79074 -219.17006,211.19223 -155.23959,-31.979302 -254.28571,-64.780683 z"
         style="opacity:0.54545456;fill:#fafda1;fill-opacity:1;stroke:none" />
      <path
         style="opacity:0.54545456;fill:#fafda1;fill-opacity:1;stroke:none"
         d="m 630.13219,-59.066397 c -87.75885,14.029611 -177.71222,-16.743113 -267.27504,39.24688 49.09168,9.774554 98.18336,-8.937053 147.27504,29.3245484 C 474.19922,188.46737 461.59763,148.85349 395.84648,229.50503 595.01654,216.90652 531.08607,-26.265016 630.13219,-59.066397 z"
         id="path3767"
         inkscape:connector-curvature="0"
         sodipodi:nodetypes="ccccc" />
      <path
         sodipodi:nodetypes="cccc"
         inkscape:connector-curvature="0"
         id="rect3769"
         d="m 17.142857,-81.923531 c 3.370797,-3.367563 277.564703,-37.713509 331.428553,60 C 239.04761,-56.260769 129.5238,-49.081003 20,-30.49496 11.217684,-46.926005 9.5045392,-63.999701 17.142857,-81.923531 z"
         style="opacity:0.54545456;fill:#fafda1;fill-opacity:1;stroke:none" />
      <path
         style="opacity:0.54545456;fill:#fafda1;fill-opacity:1;stroke:none"
         d="m 41.737057,-154.35834 c 8.661372,0.77895 218.435663,3.23342 281.737033,72.264028 C 213.95029,-116.43154 154.118,-121.51581 44.5942,-102.92976 c -20.250857,-17.14286 -9.954875,-34.28572 -2.857143,-51.42858 z"
         id="path3772"
         inkscape:connector-curvature="0"
         sodipodi:nodetypes="cccc" />
      <path
         sodipodi:nodetypes="cccc"
         inkscape:connector-curvature="0"
         id="rect3774"
         d="m 168.85607,-256.55083 c 39.90341,30.57576 60.81622,63.21852 61.68013,99.7246 l -117.14286,0 c 4.31901,-38.70068 8.81503,-62.50664 55.46273,-99.7246 z"
         style="opacity:0.54545456;fill:#fafda1;fill-opacity:1;stroke:none" />
      <path
         sodipodi:nodetypes="ccccc"
         inkscape:connector-curvature="0"
         id="rect3777"
         d="m 29.473033,26.657118 101.955537,95.453502 -85.714284,0 8.960692,-58.224725 z"
         style="opacity:0.54545456;fill:#fafda1;fill-opacity:1;stroke:none" />
      <path
         sodipodi:nodetypes="ccsccccc"
         inkscape:connector-curvature="0"
         id="rect3782"
         d="m 150.78552,-25.874246 16.60763,0 c 2.94932,21.2175364 5.89864,41.350381 8.84796,43.418315 4.62608,3.243607 9.25217,-22.8654569 13.87825,-43.418315 l 13.98537,0 0,57.625145 c -11.11135,11.722494 -20.39204,26.496084 -53.31921,1.858875 z"
         style="opacity:0.54545456;fill:#fafda1;fill-opacity:1;stroke:none" />
      <path
         sodipodi:nodetypes="cccccccccc"
         inkscape:connector-curvature="0"
         id="rect3785"
         d="m 108.38802,244.35295 c -16.270671,88.38504 -25.843456,179.09157 42.57507,249.91321 72.83179,29.79066 145.66357,17.29387 218.49536,-11.98674 62.79733,-31.57901 125.22565,-50.85952 178.90098,-32.26755 2.8587,10.82763 7.25109,21.65527 -3.0878,32.4829 -76.21959,-9.62826 -125.17642,23.28851 -184.4861,47.48006 -84.34297,40.7627 -168.68595,42.13868 -253.02892,0.99212 C 46.231792,483.31489 26.008924,397.01238 50.992853,311.40284 c -22.733696,4.66859 -68.13322,16.34052 -96.27853,10.38808 23.000386,-33.91943 99.936113,-100.26473 153.673697,-77.43797 z"
         style="opacity:0.54545456;fill:#fafda1;fill-opacity:1;stroke:none" />
      <path
         sodipodi:nodetypes="ccccccccccccccc"
         inkscape:connector-curvature="0"
         id="rect3788"
         d="m 322.71357,244.14813 c 10.69131,18.7563 15.39096,37.51259 8.9992,56.26889 l -21.93188,19.42461 c 4.5169,37.93569 27.89049,49.9162 59.87047,62.49488 l 208.83022,-0.61773 22.25938,13.62613 c 22.7808,1.57115 45.7931,3.60528 66.74273,1.51407 12.19277,9.12798 9.50199,18.25596 6.84599,27.38394 -9.05661,12.4336 -19.90229,14.13274 -30.82239,15.38542 0.0541,14.40968 -8.55983,24.48537 -23.71551,31.29017 -7.58611,4.33776 -13.34821,1.37949 -19.07436,-1.72258 -2.95597,-14.7948 -5.9153,-29.58959 -7.01508,-44.38439 l -220.4472,1.87013 c -56.01459,-17.41326 -101.8262,-43.61009 -135.99933,-84.05113 -46.01808,-71.66621 32.66098,-126.44945 85.45776,-98.48241 z"
         style="opacity:0.54545456;fill:#fafda1;fill-opacity:1;stroke:none" />
      <path
         sodipodi:nodetypes="cscccccccaaacacc"
         inkscape:connector-curvature="0"
         id="rect3791"
         d="m -155.13249,292.81208 c 52.05201,-1.30643 63.321873,17.57054 76.502039,42.43301 11.403674,21.51138 6.79166,35.13625 -3.850542,56.41356 14.351291,-9.90912 39.325632,-6.75073 48.714739,6.12478 15.068807,27.1729 11.412792,70.30249 -8.564115,105.45373 -26.20001,30.77803 -60.378361,35.84168 -78.600031,31.58117 4.45784,-18.38438 51.338248,-48.05766 32.914555,-88.70624 -14.365785,19.55613 -29.345285,26.82037 -43.097345,26.44991 -9.18708,-3.50627 -10.31823,-10.46509 -8.095,-18.86149 13.75628,-16.78537 26.72978,-45.32442 20.37864,-68.17771 -5.30484,-19.08839 -24.39385,-43.08917 -43.963,-39.99784 -19.21889,3.03601 -25.37623,31.55472 -28.96514,50.67808 -6.09766,32.49119 2.24912,65.39197 14.6452,98.08795 8.73517,23.96669 57.22945,41.62224 44.74808,64.67611 -7.24433,13.38073 -33.00552,4.7026 -45.63125,-1.22744 -77.33934,-47.92818 -122.53979,-255.52991 22.86317,-264.92758 z"
         style="opacity:0.54545456;fill:#fafda1;fill-opacity:1;stroke:none" />
      <path
         sodipodi:nodetypes="cccc"
         inkscape:connector-curvature="0"
         id="rect3794"
         d="m 412.41883,264.34766 c 9.00121,-7.407 18.00241,-3.73901 27.00362,0 -1.40189,75.51905 -10.10617,81.01083 -68.73647,95.74007 13.91095,-22.94092 27.8219,-53.18976 41.73285,-95.74007 z"
         style="opacity:0.54545456;fill:#fafda1;fill-opacity:1;stroke:none" />
      <path
         sodipodi:nodetypes="ccccccccc"
         inkscape:connector-curvature="0"
         id="rect3797"
         d="m 672.29659,571.92599 c -17.53009,9.77337 -26.09586,5.20383 -34.31039,0.0723 -15.78047,-18.99079 -18.49089,-40.26711 -52.92075,-43.27271 -33.5633,-0.89058 -48.58936,13.28035 -59.81647,30.53792 l 74.11668,2.22017 c 2.4741,9.21239 11.46697,12.72085 -0.0375,34.16449 l -132.90208,0.10745 c -6.24262,-41.20435 42.46559,-81.50511 104.01377,-119.41492 40.6519,16.48026 93.85003,64.29615 101.85674,95.5853 z"
         style="opacity:0.54545456;fill:#fafda1;fill-opacity:1;stroke:none" />
      <path
         sodipodi:nodetypes="ccccccccccccc"
         inkscape:connector-curvature="0"
         id="rect3800"
         d="m -412.24481,608.91891 c 63.69049,-62.72736 159.48313,-71.74225 252.45183,-33.28105 73.195981,25.74862 101.813725,47.66607 133.362299,86.20079 L -184.28685,613.94149 c -57.55976,-18.10465 -138.69969,18.6279 -173.92479,53.6685 -31.09064,39.29648 -17.1999,130.3641 78.58677,218.98295 46.83759,29.13793 99.11759,39.15596 212.814511,54.36776 l 212.160499,4.48575 c 72.43181,9.07739 82.48767,42.41209 97.03874,73.99865 -22.45637,-15.6016 -33.87421,-37.09041 -91.2828,-34.05082 L -70.954436,996.54672 C -152.0389,991.9317 -233.12337,989.32952 -314.20783,944.63373 -497.00537,846.16214 -471.93198,676.62753 -412.24481,608.91891 z"
         style="opacity:0.54545456;fill:#fafda1;fill-opacity:1;stroke:none" />
      <path
         sodipodi:nodetypes="ccccc"
         inkscape:connector-curvature="0"
         id="rect3803"
         d="m 216.71848,596.50607 c 12.57904,-3.40912 24.49999,-4.50511 41.42471,-14.53513 9.25417,21.90546 11.23689,37.33035 0.92259,51.90039 C 190.08689,700.8858 101.49608,749.45506 19.231993,763.32874 74.401986,716.14142 148.18598,682.31225 216.71848,596.50607 z"
         style="opacity:0.54545456;fill:#fafda1;fill-opacity:1;stroke:none" />
      <path
         transform="translate(11.624153,-19.761061)"
         d="m 163.90056,776.86975 c 0,16.04961 -14.31185,29.06038 -31.96642,29.06038 -17.65456,0 -31.966418,-13.01077 -31.966418,-29.06038 0,-16.04961 14.311858,-29.06038 31.966418,-29.06038 17.65457,0 31.96642,13.01077 31.96642,29.06038 z"
         sodipodi:ry="29.060383"
         sodipodi:rx="31.966421"
         sodipodi:cy="776.86975"
         sodipodi:cx="131.93414"
         id="path3806"
         style="opacity:0.54545456;fill:#fafda1;fill-opacity:1;stroke:none"
         sodipodi:type="arc" />
      <path
         sodipodi:nodetypes="ccc"
         inkscape:connector-curvature="0"
         id="rect3808"
         d="M 16.273815,788.49391 C 105.2383,826.52621 164.17243,819.52923 268.51794,775.70734 186.61187,867.92791 6.844429,873.09951 16.273815,788.49391 z"
         style="opacity:0.54545456;fill:#fafda1;fill-opacity:1;stroke:none" />
      <path
         sodipodi:nodetypes="cssscccccccsc"
         inkscape:connector-curvature="0"
         id="rect3811"
         d="m 362.67358,759.43352 c 54.81155,-77.49631 110.07203,-133.47683 188.6622,-147.69254 111.82398,-20.22717 210.95254,60.72469 204.23418,161.64153 -7.53635,113.20393 -62.37799,211.61101 -137.16501,295.25349 -35.77592,40.0121 -101.85198,53.1294 -137.85235,63.4826 27.51487,-31.2723 63.4827,-31.1711 101.98932,-89.9228 C 621.56753,961.88412 689.71319,859.75521 685.4128,793.08774 675.77417,692.91161 615.60347,667.01135 561.10232,683.23398 c -62.72571,18.67072 -116.50045,74.31216 -148.9627,117.51008 -46.26934,77.57363 -76.5851,232.60434 -60.72106,265.46904 28.87887,32.5473 70.19122,23.6872 99.59858,25.6712 -29.52137,26.5514 -111.57769,47.2968 -137.56004,9.3859 -58.32715,-85.1053 -0.71171,-256.24028 49.21648,-341.83668 z"
         style="opacity:0.54545456;fill:#fafda1;fill-opacity:1;stroke:none" />
      <path
         sodipodi:nodetypes="cccc"
         inkscape:connector-curvature="0"
         id="rect3814"
         d="m -55.795937,1010.5152 c 193.467817,37.6614 208.104217,107.9881 234.807907,181.3368 -71.89833,-50.4742 -112.58248,-119.6769 -239.457569,-137.165 -35.630486,-15.4986 -19.133631,-44.0907 4.649662,-44.1718 z"
         style="opacity:0.54545456;fill:#fafda1;fill-opacity:1;stroke:none" />
      <path
         sodipodi:nodetypes="ccccccccc"
         inkscape:connector-curvature="0"
         id="rect3817"
         d="m 237.13272,1115.1326 34.11868,-43.1796 c 34.0017,13.8454 31.00037,24.3574 20.81826,43.1122 l -17.73964,16.3413 1.27916,65.733 150.1881,-3.8417 c 32.7464,18.7706 23.67602,35.7232 -0.35327,52.0253 l -202.26027,-4.6496 c -24.69107,-46.0385 -3.26677,-85.4891 13.94898,-125.5409 z"
         style="opacity:0.54545456;fill:#fafda1;fill-opacity:1;stroke:none" />
      <path
         style="opacity:0.54545456;fill:#fafda1;fill-opacity:1;stroke:none"
         d="m 310.6424,26.657119 -101.95554,95.453501 85.71429,0 -8.96069,-58.224724 z"
         id="path3820"
         inkscape:connector-curvature="0"
         sodipodi:nodetypes="ccccc" />
    </g>
  </g>
</svg>
